<svg xmlns="http://www.w3.org/2000/svg" data-name="Line cutting stroke ex" viewBox="0 0 512 512" x="0px" y="0px"><title>man- cat- pet- avatar- love</title><g><rect x="128" y="128" width="16" height="16"></rect><rect x="192" y="128" width="16" height="16"></rect><path d="M192,178H176c0,1.41-3.0371,4-8,4s-8-2.59-8-4H144c0,11.2148,10.542,20,24,20S192,189.2148,192,178Z"></path><path d="M192,424H88V376H72v56a8,8,0,0,0,8,8h64v40H44a12.0134,12.0134,0,0,1-12-12V331.4717a32.1911,32.1911,0,0,1,20.5122-29.8672L111.0247,279.1A28.0722,28.0722,0,0,0,138.88,304H197.12a28.0722,28.0722,0,0,0,27.8557-24.9l12.1531,4.6741,5.7432-14.9336L221.77,260.7251l-12.2371-40.79,9.6338-4.8785A37.8185,37.8185,0,0,0,240,181.1562V168h6a18.0206,18.0206,0,0,0,18-18V130a18.0206,18.0206,0,0,0-18-18h-6V96a8,8,0,0,0,8-8V70.415a27.9661,27.9661,0,0,0-19.1455-26.5634L197.9813,33.5605A28.0446,28.0446,0,0,0,172,16H80a8,8,0,0,0-8,8V48H88V32h16V68a27.8317,27.8317,0,0,0,2.7042,12H100A12.0134,12.0134,0,0,1,88,68V64H72v4A28.0431,28.0431,0,0,0,96,95.7148V112H90a18.0206,18.0206,0,0,0-18,18v20a18.0206,18.0206,0,0,0,18,18h6v13.459a37.7925,37.7925,0,0,0,21.0059,33.9883l9.3979,4.6989L114.23,260.7251,46.7686,286.6709A48.2876,48.2876,0,0,0,16,331.4717V468a28.0314,28.0314,0,0,0,28,28H192V480H160V440h32a48.0674,48.0674,0,0,1,13.7183,1.9873l4.5634-15.3359A64.0739,64.0739,0,0,0,192,424Zm54-296a2.0023,2.0023,0,0,1,2,2v20a2.0023,2.0023,0,0,1-2,2h-6V128ZM232,70.415V80H200V51.1L223.7944,59.03A11.9863,11.9863,0,0,1,232,70.415ZM184,44V80H168V44a27.8317,27.8317,0,0,0-2.7042-12H172A12.0134,12.0134,0,0,1,184,44ZM120,68V32h20a12.0134,12.0134,0,0,1,12,12V80H132A12.0134,12.0134,0,0,1,120,68ZM90,152a2.0023,2.0023,0,0,1-2-2V130a2.0023,2.0023,0,0,1,2-2h6v24Zm22,29.459V96H224v85.1562a21.8959,21.8959,0,0,1-12.0615,19.627l-38.5747,19.5332a12.0548,12.0548,0,0,1-10.7876.0274l-38.4151-19.2071A21.8816,21.8816,0,0,1,112,181.459Zm43.42,53.1953a28.1153,28.1153,0,0,0,25.1724-.0645l14.4389-7.3115,13.5821,45.2735A12,12,0,0,1,197.12,288H138.88a12,12,0,0,1-11.4937-15.4482l13.5427-45.1426Z"></path><path d="M496,312a56.0632,56.0632,0,0,0-56-56,8.0005,8.0005,0,0,0-7.9194,9.1318l8.9926,62.9488q-1.5267-.08-3.0732-.0806H376v16h62a42.0475,42.0475,0,0,1,42,42v52a42.0475,42.0475,0,0,1-42,42H344V470a22.0248,22.0248,0,0,1,22-22h26a8,8,0,0,0,8-8V430a22.0248,22.0248,0,0,1,22-22h26V392H422a38.0433,38.0433,0,0,0-38,38v2H366a38.0433,38.0433,0,0,0-38,38v10H224V470a22.0248,22.0248,0,0,1,22-22h66V432H283.9653l6.7367-32h.7135a48.0929,48.0929,0,0,0,39.0591-20.1006l28.0352-39.25a7.9968,7.9968,0,0,0,.9809-7.458l-16.7-44.5342A38.1761,38.1761,0,0,0,307.21,264H276.3608a27.8449,27.8449,0,0,0-24.91,15.2129l-25.1436,42.6894-29.8847,14.9424A8,8,0,0,0,192,344v18a38.0433,38.0433,0,0,0,38,38h44.3507l-6.7367,32H246a38.0433,38.0433,0,0,0-38,38v18a8,8,0,0,0,8,8H438a58.0656,58.0656,0,0,0,58-58ZM312,280.5342V324a12,12,0,0,1-24,0V280h19.21A21.75,21.75,0,0,1,312,280.5342Zm-88,60.41V348a12.0134,12.0134,0,0,1-12,12h-4V348.9443Zm-10.9739,35.0369A28.0336,28.0336,0,0,0,240,348V330.1812l25.3652-43.065c.0928-.1582.1807-.3193.2622-.4824A11.9417,11.9417,0,0,1,272,280.8108V324a28,28,0,0,0,56,0V294.7837l15.0127,40.0347L317.4551,370.6a32.0644,32.0644,0,0,1-26.04,13.4H230A21.9658,21.9658,0,0,1,213.0261,375.9812Zm244.6907-44.5305-8.334-58.3394A40.073,40.073,0,0,1,480,312v34.0393A58.1692,58.1692,0,0,0,457.7168,331.4507Z"></path><path d="M342.3433,229.6572a8,8,0,0,0,11.3134,0l38.1421-38.1416a28,28,0,1,0-39.5981-39.5986l-4.2007,4.2-4.2012-4.2012a28,28,0,0,0-39.5976,39.6Zm-26.8287-66.4267a12.0009,12.0009,0,0,1,16.97-.001l9.8579,9.8584a7.9995,7.9995,0,0,0,11.3144,0l9.8574-9.8574a12,12,0,1,1,16.9708,16.9707L348,212.6865l-32.4854-32.4853A12.0139,12.0139,0,0,1,315.5146,163.2305Z"></path><path d="M417.3433,113.87a8,8,0,0,0,11.3134,0l26.6065-26.6074A23,23,0,0,0,423,54.4766a23,23,0,0,0-32.2632,32.7861ZM402.05,66.05a7.0086,7.0086,0,0,1,9.8989-.001l5.3936,5.3946a7.9995,7.9995,0,0,0,11.3144,0L434.05,66.05a7,7,0,1,1,9.8994,9.8984L423,96.8994,402.05,75.9482a6.9986,6.9986,0,0,1,0-9.8984Z"></path></g></svg>